:SAMPLES-PER-SECOND 30
:FULLY-SPECIFIED
:DEGREES
45
root  -18.4658 39.8239 -3.32354 -128.931 85.0032 -135.412
RightUpLeg  -29.3037 3.99385 6.41298
RightLeg  16.9923 7.33884 -0.494556
RightFoot  1.99249 -0.725079 5.47616
RightToes  8.73114e-010 -1.59028e-015 9.93923e-017
Spine  3.26248 -4.80307 -3.3038
Spine1  7.30944 -6.12024 4.75477
HEad  -12.7379 6.43307 3.88804
LeftShoulder1  9.93923e-017 0 1.22299e-017
LeftArm  13.8095 17.2378 -75.4718
LeftForeArm  -40.1633 -39.5109 23.655
LeftHand  1.01346 7.22346 -2.35978
RightShoulder  1.98785e-016 -4.96962e-017 1.55301e-017
RightArm  39.9693 -50.545 82.5227
RightForeArm  -51.3744 20.3053 -15.3577
RightHand  1.04817 -11.0414 -0.72489
LeftUpLeg  2.81252 -7.38536 1.50233
LeftLeg  14.6773 -8.92996 1.22977
LeftFoot  1.00907 1.07957 -8.4986
LeftToes  -2.6557e-010 -5.74853e-011 7.92038e-011
46
root  -16.7531 39.6085 -3.22279 -126.58 84.6845 -133.516
RightUpLeg  -29.9508 6.22149 5.06313
RightLeg  9.01361 3.50726 -0.0171031
RightFoot  0.546315 -0.696834 5.83381
RightToes  8.73114e-010 -1.59028e-015 9.93923e-017
Spine  3.12184 -5.21486 -4.39988
Spine1  6.50558 -6.9249 6.79452
HEad  -14.4289 7.41673 4.05126
LeftShoulder1  9.93923e-017 0 1.22299e-017
LeftArm  14.1902 15.5669 -74.7702
LeftForeArm  -39.4723 -40.6637 24.3318
LeftHand  1.00628 7.1629 -1.90007
RightShoulder  1.98785e-016 -4.96962e-017 1.55301e-017
RightArm  39.3339 -52.7425 80.9345
RightForeArm  -50.9575 20.2697 -15.1853
RightHand  1.08155 -11.2273 -1.07367
LeftUpLeg  6.37559 -3.3835 2.7795
LeftLeg  11.4699 -13.1591 1.26244
LeftFoot  1.63156 1.26347 -9.5088
LeftToes  -2.6557e-010 -5.74853e-011 7.92038e-011
47
root  -14.9667 39.2085 -3.0862 -132.469 84.0416 -139.279
RightUpLeg  -30.0091 7.368 3.9516
RightLeg  3.01031 0.363979 0.485121
RightFoot  -0.416598 -0.73484 6.59738
RightToes  8.73114e-010 -1.59028e-015 9.93923e-017
Spine  3.72608 -5.68584 -6.19997
Spine1  5.87803 -7.96456 9.25702
HEad  -16.1912 7.90263 4.26781
LeftShoulder1  9.93923e-017 0 1.22299e-017
LeftArm  15.0463 13.5533 -74.6309
LeftForeArm  -38.8444 -40.4187 24.2385
LeftHand  0.970718 6.89168 -1.13762
RightShoulder  1.98785e-016 -4.96962e-017 1.55301e-017
RightArm  36.4032 -54.3433 79.5645
RightForeArm  -49.3154 20.1087 -13.6111
RightHand  1.18383 -11.7765 -2.01946
LeftUpLeg  9.9505 -0.512369 4.4954
LeftLeg  9.73918 -17.3628 0.86095
LeftFoot  2.50724 1.42961 -10.1454
LeftToes  -2.6557e-010 -5.74853e-011 7.92038e-011
48
root  -13.0478 38.648 -2.95411 -136.952 83.0599 -143.774
RightUpLeg  -30.8584 7.39138 3.75317
RightLeg  2.13761 -1.81607 0.814895
RightFoot  1.27304 -0.717617 5.6455
RightToes  8.73114e-010 -1.59028e-015 9.93923e-017
Spine  3.86277 -6.20823 -7.29882
Spine1  5.70981 -9.02843 11.3986
HEad  -17.5516 8.26282 4.18659
LeftShoulder1  9.93923e-017 0 1.22299e-017
LeftArm  15.6057 12.0527 -75.1934
LeftForeArm  -37.3153 -38.5237 23.3133
LeftHand  0.922211 6.54054 -0.570145
RightShoulder  1.98785e-016 -4.96962e-017 1.55301e-017
RightArm  32.3469 -55.2609 78.4113
RightForeArm  -46.2684 19.731 -10.9053
RightHand  1.3158 -12.3986 -3.18198
LeftUpLeg  12.9392 0.788827 6.47707
LeftLeg  9.38575 -19.7478 0.383982
LeftFoot  2.9897 1.55611 -10.7148
LeftToes  -2.6557e-010 -5.74853e-011 7.92038e-011
49
root  -11.0132 37.9791 -2.85745 -132.378 82.132 -139.338
RightUpLeg  -33.2727 4.91489 6.45167
RightLeg  8.69006 -0.192168 0.0832388
RightFoot  4.84549 -0.267771 1.81291
RightToes  8.73114e-010 -1.59028e-015 9.93923e-017
Spine  4.08753 -6.35925 -6.47444
Spine1  5.05836 -9.47453 12.7824
HEad  -18.6868 8.66154 3.78431
LeftShoulder1  9.93923e-017 0 1.22299e-017
LeftArm  15.8066 11.8285 -76.5252
LeftForeArm  -35.9465 -35.0296 21.6523
LeftHand  0.858928 6.14386 0.525916
RightShoulder  1.98785e-016 -4.96962e-017 1.55301e-017
RightArm  29.0006 -55.449 77.1907
RightForeArm  -42.7299 19.0598 -7.59381
RightHand  1.43308 -12.8547 -4.24567
LeftUpLeg  15.1171 -0.733025 8.19079
LeftLeg  10.8379 -17.9088 0.0410936
LeftFoot  3.55719 1.89131 -12.5706
LeftToes  -2.6557e-010 -5.74853e-011 7.92038e-011
50
root  -8.93063 37.224 -2.77423 -123.393 81.332 -129.812
RightUpLeg  -35.5969 1.51748 11.0882
RightLeg  19.3628 4.44126 -1.38486
RightFoot  5.80086 0.535934 -3.16514
RightToes  8.73114e-010 -1.59028e-015 9.93923e-017
Spine  5.54267 -6.02748 -4.34281
Spine1  3.24897 -8.95955 13.4298
HEad  -20.0414 8.79348 3.28632
LeftShoulder1  9.93923e-017 0 1.22299e-017
LeftArm  17.842 12.835 -78.6848
LeftForeArm  -38.269 -30.0776 19.5891
LeftHand  0.775631 5.80093 3.15873
RightShoulder  1.98785e-016 -4.96962e-017 1.55301e-017
RightArm  24.854 -54.3306 76.3324
RightForeArm  -37.8885 17.482 -2.96862
RightHand  1.49548 -13.0536 -4.85139
LeftUpLeg  16.4199 -6.11662 8.93903
LeftLeg  15.8081 -11.8455 -0.790292
LeftFoot  7.22503 2.60675 -14.0135
LeftToes  -2.6557e-010 -5.74853e-011 7.92038e-011
51
root  -6.95474 36.5731 -2.70068 -115.469 80.2824 -120.703
RightUpLeg  -36.1094 1.45074 13.8089
RightLeg  28.9511 5.77745 -2.38369
RightFoot  1.74748 0.912918 -7.0927
RightToes  8.73114e-010 -1.59028e-015 9.93923e-017
Spine  7.73243 -5.47451 -1.37581
Spine1  1.61 -7.94055 13.3904
HEad  -21.4837 8.28917 2.93997
LeftShoulder1  9.93923e-017 0 1.22299e-017
LeftArm  19.6244 14.5803 -81.2803
LeftForeArm  -41.2114 -25.0871 14.9162
LeftHand  0.697655 5.60561 6.3562
RightShoulder  1.98785e-016 -4.96962e-017 1.55301e-017
RightArm  17.1001 -51.4945 76.9837
RightForeArm  -30.3412 14.4233 1.97743
RightHand  1.51016 -13.0538 -5.09478
LeftUpLeg  15.7643 -7.10439 10.9195
LeftLeg  23.8425 -11.0378 -1.03457
LeftFoot  15.9937 3.22792 -12.1247
LeftToes  -2.6557e-010 -5.74853e-011 7.92038e-011
52
root  -5.16455 36.2749 -2.63424 -111.386 79.1573 -115.783
RightUpLeg  -34.9079 2.39176 15.4893
RightLeg  34.3626 5.3046 -3.38881
RightFoot  -4.0244 0.697861 -8.79758
RightToes  8.73114e-010 -1.59028e-015 9.93923e-017
Spine  8.88172 -5.03294 1.97262
Spine1  1.32115 -6.848 12.6019
HEad  -22.3062 7.17219 2.99287
LeftShoulder1  9.93923e-017 0 1.22299e-017
LeftArm  6.84398 17.069 -82.9979
LeftForeArm  -28.3618 -19.2121 3.80095
LeftHand  0.703337 5.68476 7.47298
RightShoulder  1.98785e-016 -4.96962e-017 1.55301e-017
RightArm  4.08857 -47.3344 78.9923
RightForeArm  -17.8905 11.187 4.5166
RightHand  1.53042 -12.9943 -5.57557
LeftUpLeg  12.2186 -7.2567 12.6024
LeftLeg  33.5198 -10.8768 -0.440545
LeftFoot  24.4791 3.13672 -8.95968
LeftToes  -2.6557e-010 -5.74853e-011 7.92038e-011
